<?xml version="1.0" encoding="UTF-8" standalone="no"?>
<!-- Created with Inkscape (http://www.inkscape.org/) -->

<svg
   xmlns:dc="http://purl.org/dc/elements/1.1/"
   xmlns:cc="http://creativecommons.org/ns#"
   xmlns:rdf="http://www.w3.org/1999/02/22-rdf-syntax-ns#"
   xmlns:svg="http://www.w3.org/2000/svg"
   xmlns="http://www.w3.org/2000/svg"
   xmlns:sodipodi="http://sodipodi.sourceforge.net/DTD/sodipodi-0.dtd"
   xmlns:inkscape="http://www.inkscape.org/namespaces/inkscape"
   width="1410"
   height="346"
   viewBox="0 0 373.06249 91.545836"
   version="1.1"
   id="svg8"
   inkscape:version="0.92.2 (5c3e80d, 2017-08-06)"
   sodipodi:docname="logo-ssuw-3.svg">
  <defs
     id="defs2" />
  <sodipodi:namedview
     id="base"
     pagecolor="#ffffff"
     bordercolor="#666666"
     borderopacity="1.0"
     inkscape:pageopacity="0.0"
     inkscape:pageshadow="2"
     inkscape:zoom="0.49497475"
     inkscape:cx="467.42928"
     inkscape:cy="108.91431"
     inkscape:document-units="mm"
     inkscape:current-layer="layer1"
     showgrid="false"
     inkscape:window-width="1920"
     inkscape:window-height="1017"
     inkscape:window-x="-8"
     inkscape:window-y="-8"
     inkscape:window-maximized="1"
     units="px" />
  <metadata
     id="metadata5">
    <rdf:RDF>
      <cc:Work
         rdf:about="">
        <dc:format>image/svg+xml</dc:format>
        <dc:type
           rdf:resource="http://purl.org/dc/dcmitype/StillImage" />
        <dc:title></dc:title>
      </cc:Work>
    </rdf:RDF>
  </metadata>
  <g
     inkscape:label="Layer 1"
     inkscape:groupmode="layer"
     id="layer1"
     transform="translate(0,-205.45414)">
    <g
       id="Layer1002"
       transform="matrix(1.1027369,0,0,1.1027369,408.56635,159.43674)">
      <g
         id="Layer1003">
        <path
           d="m -109.3467,46.4797 v 63.3237 l 38.5843,-24.6259 -26.5551,38.4709 h 65.1394 V 46.4797 Z"
           style="fill:#ff0000;fill-rule:evenodd"
           id="path4058"
           inkscape:connector-curvature="0" />
        <path
           d="M -109.3467,85.064 V 46.4797 h 38.5843 V 85.064 Z"
           style="fill:#e80000;fill-rule:evenodd"
           id="path4060"
           inkscape:connector-curvature="0" />
        <path
           d="M -70.7624,123.6484 V 85.064 h 38.5843 v 38.5844 z"
           style="fill:#ff3636;fill-rule:evenodd"
           id="path4062"
           inkscape:connector-curvature="0" />
        <path
           d="M -70.7624,85.064 V 46.4797 h 38.5843 V 85.064 Z"
           style="fill:#ffd652;fill-rule:evenodd"
           id="path4064"
           inkscape:connector-curvature="0" />
      </g>
      <path
         d="m -342.0488,124.7471 c -8.7199,0 -15.6398,-2.6399 -20.7598,-7.92 -5.1335,-5.2801 -7.6935,-12.6933 -7.6935,-22.2667 0,-9.2265 2.5733,-16.5733 7.7069,-22.0666 5.1465,-5.4799 12.0665,-8.2267 20.7864,-8.2267 2.3068,0 4.4002,0.1335 6.2402,0.3866 1.8533,0.2668 3.6133,0.6268 5.3065,1.0934 1.3334,0.3999 2.7734,0.9334 4.3333,1.6134 1.5602,0.6667 2.8267,1.2532 3.7868,1.7467 v 13.8799 h -1.48 c -0.7067,-0.6268 -1.5868,-1.3601 -2.6532,-2.2266 -1.08,-0.8666 -2.2802,-1.7201 -3.6403,-2.5467 -1.3464,-0.8266 -2.8397,-1.5332 -4.4665,-2.12 -1.6268,-0.5732 -3.3333,-0.8666 -5.1066,-0.8666 -2.1067,0 -4.04,0.3334 -5.8,0.9998 -1.7467,0.6534 -3.4268,1.8133 -5.0134,3.4401 -1.4533,1.48 -2.6535,3.4935 -3.5733,6.0135 -0.9201,2.52 -1.3867,5.4932 -1.3867,8.9197 0,3.6134 0.4799,6.6535 1.44,9.1069 0.9734,2.4534 2.2266,4.4399 3.8001,5.9465 1.5066,1.4534 3.1864,2.5067 5.0533,3.1601 1.8533,0.6534 3.7199,0.9734 5.5599,0.9734 1.9332,0 3.7599,-0.32 5.5066,-0.9468 1.7467,-0.6267 3.2267,-1.3334 4.4135,-2.1067 1.3065,-0.7866 2.4531,-1.5998 3.4399,-2.4267 0.9867,-0.8266 1.8533,-1.5599 2.5733,-2.2 h 1.3334 v 13.6534 c -1.0667,0.4935 -2.3066,1.0533 -3.7066,1.6934 -1.4,0.6401 -2.8534,1.1733 -4.3333,1.6132 -1.8267,0.5468 -3.5201,0.9601 -5.1069,1.2535 -1.5866,0.28 -3.7732,0.4266 -6.56,0.4266 z m 67.5066,-48.1601 h -24.56 v 47.0401 H -313.742 V 65.4673 h 39.1998 z m 54.1202,-11.1197 -19.4134,46.4933 c -1.1466,2.7065 -2.4401,4.8398 -3.8531,6.3997 -1.4134,1.5602 -2.907,2.7468 -4.4669,3.5601 -1.5732,0.7999 -3.1334,1.3467 -4.6933,1.6135 -1.5599,0.28 -3.2,0.4132 -4.9201,0.4132 -1.8,0 -3.8931,-0.0399 -6.2665,-0.1199 -2.3868,-0.0802 -3.9734,-0.1468 -4.7866,-0.2267 v -12.2933 h 0.8932 c 0.2401,0.0533 0.6001,0.1066 1.0933,0.1865 0.4935,0.0802 1.12,0.1468 1.8799,0.2268 0.6268,0.0533 1.3068,0.1066 2.0268,0.1465 0.7333,0.0536 1.4,0.0802 2.0001,0.0802 1.7331,0 3.3866,-0.2134 4.9332,-0.6533 1.5468,-0.4267 2.5869,-1.1733 3.1067,-2.2267 L -274.422,65.4673 h 15.7867 l 12.4801,27.3064 10.5599,-27.3064 z m 52.0001,40.3466 c 0,2.8933 -0.5468,5.4267 -1.6401,7.6266 -1.0933,2.1867 -2.5733,3.9867 -4.4133,5.4267 -2.1999,1.7067 -4.6,2.9333 -7.2133,3.6666 -2.6266,0.7333 -5.9598,1.0933 -9.9867,1.0933 h -23.3065 V 65.4673 h 20.5733 c 4.28,0 7.52,0.1598 9.72,0.4932 2.2133,0.32 4.28,1.0001 6.2133,2.0401 2.08,1.12 3.6399,2.6266 4.6666,4.4932 1.0267,1.8799 1.5466,4.0399 1.5466,6.4933 0,2.8267 -0.7067,5.36 -2.1333,7.5733 -1.4134,2.2133 -3.3866,3.8401 -5.8799,4.8802 v 0.32 c 3.5866,0.76 6.4533,2.2932 8.6133,4.6264 2.16,2.3335 3.24,5.4802 3.24,9.4269 z m -18.72,-23.9201 c 0,-0.9332 -0.2401,-1.9066 -0.72,-2.8934 -0.4799,-0.9867 -1.2265,-1.7067 -2.2532,-2.1466 -0.9601,-0.4267 -2.0934,-0.6534 -3.4135,-0.6934 -1.3198,-0.04 -3.28,-0.0533 -5.8799,-0.0533 h -1.0134 v 12.32 h 1.8399 c 2.4934,0 4.2401,-0.0267 5.2535,-0.08 1.0001,-0.0533 2.0265,-0.32 3.1065,-0.8266 1.1602,-0.5468 1.9735,-1.2934 2.4134,-2.2665 0.4399,-0.9601 0.6667,-2.0801 0.6667,-3.3602 z m 3.6799,23.68 c 0,-1.8 -0.36,-3.2 -1.0933,-4.2134 -0.7333,-1.0267 -1.8266,-1.7867 -3.2799,-2.3065 -0.8932,-0.3467 -2.1068,-0.5335 -3.6533,-0.5735 -1.5599,-0.04 -3.6267,-0.0533 -6.2399,-0.0533 h -2.6935 v 14.5599 h 0.7866 c 3.8001,0 6.4267,-0.0267 7.8933,-0.0799 1.4534,-0.0533 2.9333,-0.4 4.4533,-1.0534 1.3201,-0.5732 2.2935,-1.4134 2.9069,-2.52 0.6131,-1.1066 0.9198,-2.3598 0.9198,-3.7599 z m 34.56,18.0533 V 76.587 h -18.3251 c -0.6508,-3.4928 -1.2237,-4.2848 -2.0687,-5.9723 -0.8323,-1.6628 -2.3712,-3.3321 -4.8311,-4.9975 l 57.0648,-0.1499 V 76.587 h -17.2 v 47.0401 z"
         style="fill:#6e6f70;fill-rule:evenodd"
         id="path4067"
         inkscape:connector-curvature="0" />
      <path
         d="m -357.8389,51.6934 c 0,1.7133 -0.4688,3.0623 -1.406,4.0471 -0.9405,0.985 -2.2643,1.4788 -3.9806,1.4788 -1.7037,0 -3.0274,-0.4938 -3.9711,-1.4788 -0.9437,-0.9848 -1.4153,-2.3338 -1.4153,-4.0471 0,-1.7288 0.4716,-3.084 1.4153,-4.0626 0.9437,-0.9785 2.2674,-1.4694 3.9711,-1.4694 1.7101,0 3.0336,0.494 3.9741,1.4788 0.9406,0.9847 1.4125,2.3372 1.4125,4.0532 z m -3.325,0.0193 c 0,-0.6145 -0.0507,-1.1273 -0.1553,-1.5361 -0.1012,-0.4116 -0.2438,-0.7375 -0.4244,-0.9847 -0.1899,-0.2597 -0.4085,-0.4402 -0.6522,-0.5414 -0.2407,-0.1015 -0.5193,-0.152 -0.8297,-0.152 -0.2914,0 -0.5573,0.0442 -0.7918,0.133 -0.2375,0.0887 -0.4558,0.2596 -0.6553,0.513 -0.1837,0.2407 -0.3357,0.5698 -0.4465,0.9879 -0.1108,0.4212 -0.1678,0.9468 -0.1678,1.5803 0,0.6364 0.0539,1.1495 0.1582,1.539 0.1046,0.3926 0.2438,0.7029 0.4116,0.9374 0.1743,0.2406 0.3897,0.4147 0.6525,0.5255 0.2597,0.1108 0.5511,0.1678 0.8677,0.1678 0.2596,0 0.5255,-0.057 0.7979,-0.1678 0.269,-0.1108 0.4845,-0.2755 0.6461,-0.4972 0.193,-0.2659 0.3387,-0.5825 0.4402,-0.9564 0.0981,-0.3736 0.1488,-0.8898 0.1488,-1.5483 z m 13.9773,-3.6005 c 0.396,0.4019 0.7096,0.8991 0.9375,1.4913 0.2313,0.5921 0.3452,1.3269 0.3452,2.2073 0,1.6308 -0.4844,2.9387 -1.4536,3.9266 -0.9657,0.9881 -2.2736,1.4819 -3.9172,1.4819 -1.8082,0 -3.1507,-0.5856 -4.028,-1.7541 -0.877,-1.1718 -1.3173,-2.9231 -1.3173,-5.2568 0,-0.4465 0.0221,-0.8995 0.0635,-1.3618 0.0442,-0.4589 0.1423,-1.0196 0.2977,-1.675 0.1298,-0.5448 0.3166,-1.0893 0.5604,-1.6307 0.2438,-0.5418 0.5383,-0.9851 0.877,-1.3301 0.3833,-0.3991 0.9057,-0.7409 1.5676,-1.0261 0.6619,-0.288 1.5865,-0.4907 2.7805,-0.6112 0.5635,-0.0538 1.2285,-0.1012 2.0012,-0.1391 0.7728,-0.0349 1.3901,-0.0604 1.8462,-0.0729 v 2.4129 c -0.3894,0.019 -0.7475,0.0348 -1.0734,0.0507 -0.3232,0.0159 -0.6968,0.0411 -1.118,0.0729 -0.2597,0.0158 -0.6015,0.0473 -1.0228,0.0887 -0.4212,0.038 -0.7789,0.0884 -1.0766,0.1423 -0.3611,0.0759 -0.6936,0.1933 -0.9975,0.3484 -0.3072,0.1553 -0.5607,0.3642 -0.7568,0.6207 -0.1488,0.1931 -0.2724,0.4496 -0.3674,0.7694 -0.0981,0.32 -0.1678,0.7126 -0.2089,1.178 0.4558,-0.3293 0.9402,-0.5921 1.4502,-0.7886 0.5065,-0.1992 1.0545,-0.2976 1.6435,-0.2976 0.5825,0 1.1305,0.095 1.6373,0.2883 0.5097,0.193 0.9499,0.4813 1.3297,0.8646 z m -2.7073,6.1843 c 0.1995,-0.2407 0.3611,-0.5383 0.4813,-0.8867 0.1236,-0.3515 0.1837,-0.8453 0.1837,-1.4913 0,-0.7475 -0.1931,-1.3521 -0.5794,-1.8051 -0.3864,-0.4561 -0.8963,-0.684 -1.5327,-0.684 -0.2945,0 -0.6018,0.038 -0.9247,0.1109 -0.3262,0.0759 -0.665,0.212 -1.0196,0.4084 0,0.0635 -0.003,0.152 -0.007,0.2659 -0.003,0.1143 -0.003,0.2186 -0.003,0.3104 0,0.8994 0.0286,1.5803 0.0856,2.0458 0.0538,0.4623 0.1803,0.8929 0.3736,1.2889 0.1616,0.3356 0.3798,0.589 0.6522,0.7631 0.2756,0.174 0.5922,0.2596 0.9533,0.2596 0.2058,0 0.4368,-0.0476 0.6871,-0.1394 0.2535,-0.0916 0.4686,-0.2407 0.6492,-0.4465 z m 15.9412,-2.7454 c 0,1.6626 -0.4244,3.0051 -1.2699,4.025 -0.8487,1.0196 -1.8936,1.5293 -3.1349,1.5293 -0.5196,0 -0.9723,-0.0601 -1.3586,-0.1772 -0.3833,-0.1174 -0.7949,-0.2976 -1.2286,-0.5448 v 4.3322 h -3.249 V 46.4845 h 3.249 v 1.086 c 0.478,-0.4054 0.9658,-0.7376 1.463,-0.991 0.4938,-0.2535 1.0704,-0.3802 1.7195,-0.3802 1.2127,0 2.1501,0.4782 2.812,1.4378 0.665,0.9595 0.9975,2.2609 0.9975,3.914 z m -3.3251,0.0698 c 0,-1.0134 -0.1584,-1.7513 -0.4719,-2.2074 -0.3133,-0.4592 -0.8042,-0.6871 -1.4692,-0.6871 -0.2914,0 -0.5828,0.0476 -0.8708,0.1392 -0.2914,0.0918 -0.5763,0.2313 -0.855,0.4181 v 5.241 c 0.1741,0.076 0.364,0.1298 0.5732,0.1582 0.2089,0.0317 0.4558,0.0476 0.7441,0.0476 0.7948,0 1.387,-0.2597 1.7702,-0.7759 0.3864,-0.5161 0.5794,-1.292 0.5794,-2.3337 z m 10.7793,2.5554 v -2.1818 c -0.5445,0.057 -0.9878,0.1043 -1.3235,0.1457 -0.339,0.038 -0.6681,0.1171 -0.9943,0.2375 -0.2818,0.0981 -0.5004,0.25 -0.6588,0.4496 -0.1551,0.2027 -0.2342,0.4717 -0.2342,0.8076 0,0.4907 0.1299,0.8263 0.3895,1.01 0.2628,0.1837 0.646,0.2755 1.1557,0.2755 0.2818,0 0.5701,-0.0666 0.8646,-0.1964 0.2945,-0.1299 0.5604,-0.3133 0.801,-0.5477 z m 0,1.6149 c -0.2216,0.1868 -0.4212,0.3546 -0.5952,0.5034 -0.1775,0.1457 -0.4116,0.2946 -0.7093,0.4434 -0.2882,0.1426 -0.57,0.2534 -0.8455,0.3294 -0.2724,0.0759 -0.6557,0.1139 -1.1495,0.1139 -0.9184,0 -1.6815,-0.3101 -2.2864,-0.9309 -0.608,-0.6208 -0.9119,-1.3997 -0.9119,-2.3434 0,-0.7758 0.155,-1.4028 0.4623,-1.8776 0.307,-0.4783 0.7503,-0.8584 1.33,-1.137 0.5857,-0.2849 1.2855,-0.4845 2.0994,-0.5953 0.8138,-0.1108 1.688,-0.1964 2.6251,-0.2597 v -0.0569 c 0,-0.5732 -0.212,-0.9723 -0.6332,-1.1909 -0.4213,-0.2182 -1.0545,-0.3291 -1.897,-0.3291 -0.3829,0 -0.8294,0.0695 -1.3393,0.2089 -0.51,0.1392 -1.0103,0.3167 -1.4979,0.5321 h -0.2755 v -2.5208 c 0.3229,-0.0919 0.8391,-0.2027 1.5579,-0.3294 0.7158,-0.1264 1.4409,-0.1899 2.1694,-0.1899 1.7923,0 3.0968,0.2976 3.9172,0.8963 0.82,0.5984 1.2285,1.5103 1.2285,2.7391 v 7.0996 h -3.2491 z m 13.8447,-1.8587 c 0,0.6015 -0.136,1.1146 -0.4116,1.5358 -0.2755,0.4213 -0.646,0.76 -1.1114,1.0134 -0.4434,0.2438 -0.9595,0.421 -1.5423,0.5318 -0.586,0.1108 -1.213,0.1678 -1.8811,0.1678 -0.8518,0 -1.6246,-0.0791 -2.3086,-0.2406 -0.6871,-0.1613 -1.3266,-0.3481 -1.9221,-0.5636 v -2.5015 h 0.3421 c 0.4623,0.269 0.9785,0.4969 1.5421,0.6871 0.5638,0.1868 1.1401,0.2817 1.726,0.2817 0.2185,0 0.4782,-0.0158 0.7883,-0.0476 0.3073,-0.0314 0.5479,-0.0822 0.722,-0.1582 0.2661,-0.1046 0.453,-0.2344 0.5638,-0.3863 0.1108,-0.1551 0.1678,-0.3484 0.1678,-0.5859 0,-0.2628 -0.0601,-0.4686 -0.1837,-0.6205 -0.1236,-0.1523 -0.2945,-0.2662 -0.5099,-0.3422 -0.2152,-0.0728 -0.4624,-0.1202 -0.7473,-0.136 -0.2817,-0.0159 -0.589,-0.0222 -0.9215,-0.0222 h -1.2095 v -2.0709 h 0.9215 c 0.2341,0 0.5162,-0.0035 0.8487,-0.0128 0.3291,-0.0096 0.5953,-0.0411 0.7914,-0.0981 0.2503,-0.0666 0.4468,-0.1647 0.5891,-0.2914 0.1426,-0.1267 0.2123,-0.3263 0.2123,-0.6049 0,-0.1964 -0.0604,-0.3577 -0.1806,-0.4844 -0.1205,-0.1267 -0.2786,-0.2248 -0.4782,-0.3008 -0.1647,-0.0604 -0.3608,-0.1077 -0.5825,-0.1363 -0.2217,-0.0318 -0.4561,-0.0474 -0.703,-0.0474 -0.4499,0 -0.9312,0.0729 -1.4443,0.2217 -0.5127,0.1488 -0.9785,0.3356 -1.3994,0.5573 h -0.3422 v -2.4732 c 0.3515,-0.114 0.8995,-0.2469 1.6373,-0.4054 0.741,-0.1585 1.4599,-0.2375 2.1597,-0.2375 0.6237,0 1.2002,0.0476 1.7258,0.1394 0.5255,0.0919 1.0196,0.2566 1.4851,0.4907 0.4339,0.2217 0.7823,0.5193 1.0482,0.8898 0.2659,0.3705 0.3991,0.8266 0.3991,1.3618 0,0.551 -0.1774,1.0451 -0.5289,1.485 -0.3515,0.4371 -0.779,0.7348 -1.2858,0.8901 v 0.0822 c 0.6429,0.1806 1.1432,0.4813 1.4947,0.8994 0.3515,0.4179 0.5289,0.9278 0.5289,1.5327 z m 11.7675,-2.2391 c 0,1.7133 -0.4688,3.0623 -1.406,4.0471 -0.9405,0.985 -2.2643,1.4788 -3.9807,1.4788 -1.7036,0 -3.0274,-0.4938 -3.971,-1.4788 -0.9437,-0.9848 -1.4154,-2.3338 -1.4154,-4.0471 0,-1.7288 0.4717,-3.084 1.4154,-4.0626 0.9436,-0.9785 2.2674,-1.4694 3.971,-1.4694 1.7102,0 3.0337,0.494 3.9742,1.4788 0.9405,0.9847 1.4125,2.3372 1.4125,4.0532 z m -3.325,0.0193 c 0,-0.6145 -0.0508,-1.1273 -0.1554,-1.5361 -0.1012,-0.4116 -0.2438,-0.7375 -0.4243,-0.9847 -0.1899,-0.2597 -0.4085,-0.4402 -0.6523,-0.5414 -0.2406,-0.1015 -0.5193,-0.152 -0.8297,-0.152 -0.2914,0 -0.5573,0.0442 -0.7917,0.133 -0.2375,0.0887 -0.4558,0.2596 -0.6554,0.513 -0.1836,0.2407 -0.3356,0.5698 -0.4464,0.9879 -0.1109,0.4212 -0.1678,0.9468 -0.1678,1.5803 0,0.6364 0.0538,1.1495 0.1581,1.539 0.1046,0.3926 0.2438,0.7029 0.4116,0.9374 0.1744,0.2406 0.3898,0.4147 0.6526,0.5255 0.2596,0.1108 0.551,0.1678 0.8677,0.1678 0.2596,0 0.5255,-0.057 0.7979,-0.1678 0.269,-0.1108 0.4844,-0.2755 0.646,-0.4972 0.1931,-0.2659 0.3388,-0.5825 0.4402,-0.9564 0.0981,-0.3736 0.1489,-0.8898 0.1489,-1.5483 z m 14.8419,2.0424 c 0,0.5003 -0.0981,0.9468 -0.2977,1.3362 -0.1961,0.3895 -0.4623,0.7127 -0.7979,0.9723 -0.4212,0.3263 -0.8646,0.548 -1.3331,0.6619 -0.4655,0.114 -1.0228,0.1709 -1.6657,0.1709 h -5.7095 V 46.4845 h 5.4433 c 0.7634,0 1.3238,0.0252 1.6816,0.0729 0.3611,0.0504 0.7126,0.1709 1.061,0.3639 0.3639,0.1965 0.6363,0.4592 0.8169,0.7886 0.1806,0.3294 0.269,0.7189 0.269,1.1685 0,0.5224 -0.1392,0.9722 -0.4178,1.3555 -0.2787,0.3861 -0.6301,0.6775 -1.0514,0.8833 v 0.1014 c 0.5763,0.1426 1.0514,0.4275 1.4312,0.8581 0.3802,0.4275 0.5701,0.9882 0.5701,1.6784 z m -3.7809,-4.1261 c 0,-0.4054 -0.1173,-0.684 -0.3483,-0.8394 -0.2345,-0.155 -0.605,-0.2341 -1.1146,-0.2341 h -1.349 v 2.09 h 1.4059 c 0.4527,0 0.8011,-0.0887 1.0418,-0.2693 0.2438,-0.1806 0.3642,-0.4306 0.3642,-0.7472 z m 0.4558,4.0311 c 0,-0.453 -0.1264,-0.7696 -0.3798,-0.9533 -0.2534,-0.1837 -0.6333,-0.2755 -1.1339,-0.2755 h -1.754 v 2.3941 h 1.8113 c 0.4558,0 0.8138,-0.1045 1.0701,-0.3135 0.2565,-0.2058 0.3863,-0.4909 0.3863,-0.8518 z m 10.808,0.5162 v -2.1818 c -0.5446,0.057 -0.9879,0.1043 -1.3235,0.1457 -0.339,0.038 -0.6681,0.1171 -0.9944,0.2375 -0.2818,0.0981 -0.5003,0.25 -0.6588,0.4496 -0.155,0.2027 -0.2341,0.4717 -0.2341,0.8076 0,0.4907 0.1298,0.8263 0.3895,1.01 0.2627,0.1837 0.646,0.2755 1.1556,0.2755 0.2818,0 0.5701,-0.0666 0.8646,-0.1964 0.2945,-0.1299 0.5604,-0.3133 0.8011,-0.5477 z m 0,1.6149 c -0.2217,0.1868 -0.4212,0.3546 -0.5953,0.5034 -0.1774,0.1457 -0.4116,0.2946 -0.7092,0.4434 -0.2883,0.1426 -0.5701,0.2534 -0.8456,0.3294 -0.2724,0.0759 -0.6557,0.1139 -1.1494,0.1139 -0.9185,0 -1.6816,-0.3101 -2.2865,-0.9309 -0.608,-0.6208 -0.9119,-1.3997 -0.9119,-2.3434 0,-0.7758 0.1551,-1.4028 0.4624,-1.8776 0.3069,-0.4783 0.7503,-0.8584 1.33,-1.137 0.5856,-0.2849 1.2855,-0.4845 2.0993,-0.5953 0.8138,-0.1108 1.688,-0.1964 2.6252,-0.2597 v -0.0569 c 0,-0.5732 -0.2121,-0.9723 -0.6333,-1.1909 -0.4212,-0.2182 -1.0545,-0.3291 -1.8969,-0.3291 -0.383,0 -0.8294,0.0695 -1.3394,0.2089 -0.51,0.1392 -1.0103,0.3167 -1.4978,0.5321 h -0.2756 v -2.5208 c 0.3229,-0.0919 0.8391,-0.2027 1.558,-0.3294 0.7157,-0.1264 1.4408,-0.1899 2.1693,-0.1899 1.7924,0 3.0969,0.2976 3.9172,0.8963 0.8201,0.5984 1.2286,1.5103 1.2286,2.7391 v 7.0996 h -3.2491 z m 14.2055,-7.0458 h -3.2298 v 8.151 h -3.249 v -8.151 h -3.2301 v -2.2609 h 9.7089 z m 6.666,8.4359 c -1.9698,0 -3.4801,-0.4685 -4.5315,-1.4091 -1.0482,-0.9405 -1.5738,-2.2799 -1.5738,-4.0184 0,-1.7005 0.4907,-3.056 1.4692,-4.0725 0.9785,-1.0131 2.3497,-1.5199 4.1071,-1.5199 1.5993,0 2.8026,0.4305 3.6071,1.292 0.8073,0.8583 1.2096,2.09 1.2096,3.6955 v 1.1685 h -7.1442 c 0.0318,0.4844 0.1332,0.8866 0.3073,1.2129 0.1743,0.3263 0.4022,0.5825 0.6902,0.7758 0.2789,0.19 0.6049,0.3294 0.9754,0.4116 0.3736,0.0856 0.779,0.1267 1.2192,0.1267 0.3801,0 0.7506,-0.0411 1.118,-0.1267 0.3674,-0.0856 0.703,-0.1964 1.0068,-0.3356 0.2662,-0.1205 0.5131,-0.2469 0.7379,-0.3864 0.2279,-0.1391 0.4116,-0.2596 0.5542,-0.3673 h 0.3452 v 2.6886 c -0.2661,0.1044 -0.5099,0.2027 -0.7285,0.2912 -0.2216,0.0918 -0.5224,0.1836 -0.9056,0.2755 -0.3546,0.0918 -0.7189,0.1647 -1.0925,0.2185 -0.3767,0.0539 -0.8328,0.0791 -1.3711,0.0791 z m 1.0956,-6.821 c -0.019,-0.6933 -0.1803,-1.2223 -0.4814,-1.5831 -0.3038,-0.3643 -0.7662,-0.5449 -1.3901,-0.5449 -0.6397,0 -1.1367,0.1903 -1.4947,0.5732 -0.3577,0.3801 -0.5573,0.8994 -0.5953,1.5548 z m 14.7977,6.5361 h -3.2488 v -8.113 h -2.5651 c -0.019,0.4433 -0.0317,0.8011 -0.0411,1.0735 -0.01,0.2724 -0.0224,0.5763 -0.0317,0.9153 -0.0443,0.9941 -0.1299,1.8017 -0.2535,2.4287 -0.1233,0.627 -0.2817,1.1401 -0.4716,1.5421 -0.1868,0.3991 -0.3771,0.7126 -0.5701,0.9374 -0.1964,0.2248 -0.4085,0.4371 -0.6367,0.6332 -0.2182,0.1871 -0.5224,0.3391 -0.9212,0.4593 -0.396,0.1204 -0.7569,0.1805 -1.0862,0.1805 -0.2787,0 -0.5542,-0.0093 -0.8297,-0.0317 -0.2756,-0.0221 -0.4403,-0.0349 -0.4972,-0.0349 v -2.6504 h 0.0918 c 0.0252,0 0.0666,0.0031 0.1267,0.0096 0.057,0.0063 0.1171,0.0094 0.1709,0.0094 0.1489,0 0.3042,-0.0159 0.4655,-0.0507 0.1616,-0.0349 0.2945,-0.1044 0.3991,-0.209 0.4275,-0.4305 0.6999,-1.0068 0.8201,-1.7257 0.1204,-0.722 0.2026,-1.5296 0.2471,-2.4225 0.0253,-0.4878 0.0505,-1.0292 0.0729,-1.631 0.0252,-0.6015 0.0442,-1.1778 0.057,-1.732 h 8.7018 z m 11.853,-3.4959 c 0,0.532 -0.1046,1.0227 -0.3166,1.4692 -0.2092,0.4498 -0.4847,0.8138 -0.8266,1.099 -0.4181,0.3418 -0.8549,0.5794 -1.3016,0.7188 -0.4496,0.1392 -1.0545,0.2089 -1.8176,0.2089 h -5.1236 V 46.4845 h 3.249 v 3.515 h 1.8905 c 0.7472,0 1.3521,0.0538 1.8144,0.1581 0.4592,0.1046 0.8963,0.3104 1.311,0.6208 0.3643,0.2724 0.6429,0.6398 0.8329,1.1021 0.1933,0.4655 0.2882,0.972 0.2882,1.52 z m -3.5753,0.896 c 0.1046,-0.1361 0.1774,-0.2755 0.2123,-0.4209 0.038,-0.1457 0.057,-0.298 0.057,-0.4499 0,-0.4465 -0.133,-0.7758 -0.3991,-0.9944 -0.2628,-0.2151 -0.646,-0.3229 -1.1464,-0.3229 h -1.2855 v 2.6791 h 1.2855 c 0.3325,0 0.605,-0.0477 0.8139,-0.1426 0.2092,-0.0981 0.3642,-0.212 0.4623,-0.3484 z m 14.9689,2.5999 h -3.2488 v -4.4651 h -3.363 v 4.4651 h -3.2491 V 46.4845 h 3.2491 v 3.6099 h 3.363 v -3.6099 h 3.2488 z m 11.7485,-3.4959 c 0,0.532 -0.1043,1.0227 -0.3166,1.4692 -0.209,0.4498 -0.4845,0.8138 -0.8232,1.099 -0.4213,0.3418 -0.8584,0.5794 -1.3048,0.7188 -0.4496,0.1392 -1.0545,0.2089 -1.8145,0.2089 h -5.0128 V 46.4845 h 3.2491 v 3.515 h 1.7796 c 0.7472,0 1.3521,0.0538 1.8113,0.1581 0.4593,0.1046 0.8961,0.3104 1.3111,0.6208 0.3642,0.2724 0.6429,0.6398 0.8328,1.1021 0.193,0.4655 0.288,0.972 0.288,1.52 z m -3.5751,0.896 c 0.1046,-0.1361 0.1775,-0.2755 0.2123,-0.4209 0.038,-0.1457 0.057,-0.298 0.057,-0.4499 0,-0.4465 -0.1332,-0.7758 -0.396,-0.9944 -0.2659,-0.2151 -0.6491,-0.3229 -1.1463,-0.3229 h -1.1747 v 2.6791 h 1.1747 c 0.3325,0 0.6018,-0.0477 0.8107,-0.1426 0.2123,-0.0981 0.3643,-0.212 0.4623,-0.3484 z m 7.8883,2.5999 h -3.2491 V 46.4845 h 3.2491 z m 12.3911,0 h -3.1918 v -6.3238 l -4.006,6.3238 h -2.7201 V 46.4845 h 3.1921 v 5.6557 l 3.6731,-5.6557 h 3.0527 z m -0.855,-15.029 c 0,1.0069 -0.3387,1.8241 -1.0133,2.4543 -0.6775,0.6301 -1.694,0.9467 -3.0527,0.9467 -1.3583,0 -2.3748,-0.3166 -3.0526,-0.9501 -0.6744,-0.6333 -1.0134,-1.4502 -1.0134,-2.4509 h 2.5271 c 0.0128,0.6081 0.1298,1.0639 0.3577,1.368 0.2248,0.3039 0.6177,0.4561 1.1812,0.4561 0.5638,0 0.9564,-0.1522 1.1812,-0.4529 0.2279,-0.3008 0.3453,-0.7569 0.3578,-1.3712 z m 18.6928,15.029 h -3.249 v -8.113 h -3.3058 v 8.113 h -3.2491 V 46.4845 h 9.8039 z m 12.4929,-5.203 c 0,1.7133 -0.4689,3.0623 -1.406,4.0471 -0.9405,0.985 -2.2643,1.4788 -3.9807,1.4788 -1.7036,0 -3.0274,-0.4938 -3.9711,-1.4788 -0.9436,-0.9848 -1.4153,-2.3338 -1.4153,-4.0471 0,-1.7288 0.4717,-3.084 1.4153,-4.0626 0.9437,-0.9785 2.2675,-1.4694 3.9711,-1.4694 1.7101,0 3.0336,0.494 3.9742,1.4788 0.9405,0.9847 1.4125,2.3372 1.4125,4.0532 z m -3.3251,0.0193 c 0,-0.6145 -0.0507,-1.1273 -0.1553,-1.5361 -0.1012,-0.4116 -0.2438,-0.7375 -0.4243,-0.9847 -0.19,-0.2597 -0.4085,-0.4402 -0.6523,-0.5414 -0.2407,-0.1015 -0.5193,-0.152 -0.8297,-0.152 -0.2914,0 -0.5573,0.0442 -0.7917,0.133 -0.2376,0.0887 -0.4558,0.2596 -0.6554,0.513 -0.1837,0.2407 -0.3356,0.5698 -0.4464,0.9879 -0.1109,0.4212 -0.1679,0.9468 -0.1679,1.5803 0,0.6364 0.0539,1.1495 0.1582,1.539 0.1046,0.3926 0.2438,0.7029 0.4116,0.9374 0.1743,0.2406 0.3898,0.4147 0.6525,0.5255 0.2597,0.1108 0.5511,0.1678 0.8677,0.1678 0.2597,0 0.5256,-0.057 0.798,-0.1678 0.269,-0.1108 0.4844,-0.2755 0.646,-0.4972 0.193,-0.2659 0.3387,-0.5825 0.4402,-0.9564 0.0981,-0.3736 0.1488,-0.8898 0.1488,-1.5483 z m 15.2791,-0.1616 c 0,1.6626 -0.4244,3.0051 -1.27,4.025 -0.8487,1.0196 -1.8935,1.5293 -3.1348,1.5293 -0.5196,0 -0.9723,-0.0601 -1.3586,-0.1772 -0.3833,-0.1174 -0.7949,-0.2976 -1.2286,-0.5448 v 4.3322 h -3.249 V 46.4845 h 3.249 v 1.086 c 0.4779,-0.4054 0.9658,-0.7376 1.463,-0.991 0.4938,-0.2535 1.0703,-0.3802 1.7195,-0.3802 1.2126,0 2.1501,0.4782 2.812,1.4378 0.665,0.9595 0.9975,2.2609 0.9975,3.914 z m -3.3251,0.0698 c 0,-1.0134 -0.1584,-1.7513 -0.4719,-2.2074 -0.3133,-0.4592 -0.8042,-0.6871 -1.4692,-0.6871 -0.2914,0 -0.5828,0.0476 -0.8708,0.1392 -0.2914,0.0918 -0.5763,0.2313 -0.855,0.4181 v 5.241 c 0.1741,0.076 0.364,0.1298 0.5732,0.1582 0.2089,0.0317 0.4558,0.0476 0.7441,0.0476 0.7948,0 1.387,-0.2597 1.7702,-0.7759 0.3864,-0.5161 0.5794,-1.292 0.5794,-2.3337 z m 13.6103,-2.8755 h -3.2298 v 8.151 h -3.2491 v -8.151 h -3.2301 v -2.2609 h 9.709 z m 7.0585,5.4309 v -2.1818 c -0.5445,0.057 -0.9878,0.1043 -1.3235,0.1457 -0.339,0.038 -0.6681,0.1171 -0.9943,0.2375 -0.2818,0.0981 -0.5004,0.25 -0.6588,0.4496 -0.1551,0.2027 -0.2342,0.4717 -0.2342,0.8076 0,0.4907 0.1299,0.8263 0.3895,1.01 0.2628,0.1837 0.646,0.2755 1.1557,0.2755 0.2818,0 0.5701,-0.0666 0.8646,-0.1964 0.2945,-0.1299 0.5604,-0.3133 0.801,-0.5477 z m 0,1.6149 c -0.2216,0.1868 -0.4212,0.3546 -0.5952,0.5034 -0.1775,0.1457 -0.4116,0.2946 -0.7093,0.4434 -0.2882,0.1426 -0.57,0.2534 -0.8455,0.3294 -0.2724,0.0759 -0.6557,0.1139 -1.1495,0.1139 -0.9184,0 -1.6815,-0.3101 -2.2864,-0.9309 -0.608,-0.6208 -0.9119,-1.3997 -0.9119,-2.3434 0,-0.7758 0.155,-1.4028 0.4623,-1.8776 0.307,-0.4783 0.7503,-0.8584 1.33,-1.137 0.5857,-0.2849 1.2855,-0.4845 2.0994,-0.5953 0.8138,-0.1108 1.688,-0.1964 2.6251,-0.2597 v -0.0569 c 0,-0.5732 -0.212,-0.9723 -0.6332,-1.1909 -0.4213,-0.2182 -1.0545,-0.3291 -1.897,-0.3291 -0.3829,0 -0.8294,0.0695 -1.3393,0.2089 -0.51,0.1392 -1.0103,0.3167 -1.4979,0.5321 h -0.2755 v -2.5208 c 0.3229,-0.0919 0.8391,-0.2027 1.5579,-0.3294 0.7158,-0.1264 1.4409,-0.1899 2.1694,-0.1899 1.7923,0 3.0968,0.2976 3.9172,0.8963 0.82,0.5984 1.2285,1.5103 1.2285,2.7391 v 7.0996 h -3.2491 z m 15.5926,1.1052 h -3.2488 v -8.113 h -2.5651 c -0.019,0.4433 -0.0317,0.8011 -0.0411,1.0735 -0.01,0.2724 -0.0224,0.5763 -0.0317,0.9153 -0.0443,0.9941 -0.1299,1.8017 -0.2534,2.4287 -0.1234,0.627 -0.2818,1.1401 -0.4717,1.5421 -0.1868,0.3991 -0.377,0.7126 -0.5701,0.9374 -0.1964,0.2248 -0.4085,0.4371 -0.6366,0.6332 -0.2183,0.1871 -0.5225,0.3391 -0.9213,0.4593 -0.396,0.1204 -0.7569,0.1805 -1.0862,0.1805 -0.2787,0 -0.5542,-0.0093 -0.8297,-0.0317 -0.2756,-0.0221 -0.4403,-0.0349 -0.4972,-0.0349 v -2.6504 h 0.0918 c 0.0252,0 0.0666,0.0031 0.1267,0.0096 0.057,0.0063 0.1171,0.0094 0.1709,0.0094 0.1489,0 0.3042,-0.0159 0.4655,-0.0507 0.1616,-0.0349 0.2945,-0.1044 0.3991,-0.209 0.4275,-0.4305 0.6999,-1.0068 0.8201,-1.7257 0.1204,-0.722 0.2027,-1.5296 0.2472,-2.4225 0.0252,-0.4878 0.0504,-1.0292 0.0728,-1.631 0.0252,-0.6015 0.0442,-1.1778 0.057,-1.732 h 8.7018 z"
         style="fill:#6e6f70;fill-rule:evenodd"
         id="path4069"
         inkscape:connector-curvature="0" />
      <path
         d="m -299.1022,123.6271 9.5244,-16.2212 -18.3047,10.7149 z"
         style="fill:#6e6f70;fill-rule:evenodd"
         id="path4071"
         inkscape:connector-curvature="0" />
      <path
         d="m -134.1519,123.1543 9.5244,-16.2213 -18.3047,10.715 z"
         style="fill:#6e6f70;fill-rule:evenodd"
         id="path4073"
         inkscape:connector-curvature="0" />
    </g>
  </g>
</svg>
